<svg xmlns="http://www.w3.org/2000/svg" viewBox="0 0 64 64" role="img" aria-labelledby="title desc">
  <title id="title">C logo</title>
  <desc id="desc">Blue C language badge.</desc>
  <rect width="64" height="64" rx="14" fill="#1F4E79"/>
  <path fill="#2F80C0" d="M32 7 54 19.5v25L32 57 10 44.5v-25L32 7Z"/>
  <path fill="#fff" d="M33 46.5c-8.8 0-15.2-6.1-15.2-14.5S24.2 17.5 33 17.5c5.5 0 9.5 2.1 12.1 5.7l-5.1 3.7c-1.6-2.1-3.6-3.2-6.7-3.2-5 0-8.5 3.5-8.5 8.3s3.5 8.3 8.5 8.3c3.2 0 5.4-1.3 7.1-3.5l5.2 3.6c-2.7 3.9-7.2 6.1-12.6 6.1Z"/>
</svg>
