<svg xmlns="http://www.w3.org/2000/svg" viewBox="0 0 64 64" role="img" aria-labelledby="title desc">
  <title id="title">C++ logo</title>
  <desc id="desc">Blue C++ language badge.</desc>
  <rect width="64" height="64" rx="14" fill="#0B4F9C"/>
  <path fill="#0D69C9" d="M32 7 54 19.5v25L32 57 10 44.5v-25L32 7Z"/>
  <path fill="#fff" d="M32 46.5c-8.1 0-14.2-6-14.2-14.5S23.9 17.5 32 17.5c5.1 0 8.7 1.8 11.4 5.1l-4.6 4.1c-1.7-2-3.6-3-6.4-3-4.6 0-7.8 3.4-7.8 8.3s3.2 8.3 7.8 8.3c2.8 0 4.9-1.1 6.7-3.2l4.6 4c-2.8 3.5-6.7 5.4-11.7 5.4Z"/>
  <path fill="#fff" d="M44.6 30h3.5v-3.5h3V30h3.5v2.8h-3.5v3.6h-3v-3.6h-3.5V30Zm-13.7 0h3.5v-3.5h3V30H41v2.8h-3.6v3.6h-3v-3.6h-3.5V30Z"/>
</svg>
