<svg xmlns="http://www.w3.org/2000/svg" viewBox="0 0 64 64" role="img" aria-labelledby="title desc">
  <title id="title">Go logo</title>
  <desc id="desc">Cyan Go language badge.</desc>
  <rect width="64" height="64" rx="14" fill="#071A1F"/>
  <path fill="#00ADD8" d="M16 34.5h17.7c-.7 4.3-4.1 7.1-8.4 7.1-5.1 0-8.7-3.8-8.7-9.3 0-5.4 3.5-9.2 8.7-9.2 2.8 0 5.1 1.1 6.7 3.1l4.3-3.9c-2.5-3.1-6.2-4.9-11.1-4.9-8.5 0-14.8 6.2-14.8 14.9s6.2 14.9 14.8 14.9c8.3 0 14.1-5.8 14.1-14.3 0-.9-.1-1.8-.2-2.5H16v4.1Zm25.5-11.9h13v5.1h-13v-5.1Zm0 9.3h11.4V37H41.5v-5.1Zm0 9.4h13v5.1h-13v-5.1Z"/>
  <path fill="#00ADD8" d="M6 24h11v3.2H6V24Zm-3 7h14v3.2H3V31Zm4 7h10v3.2H7V38Z"/>
</svg>
