<svg xmlns="http://www.w3.org/2000/svg" viewBox="0 0 64 64" role="img" aria-labelledby="title desc">
  <title id="title">JavaScript logo</title>
  <desc id="desc">Yellow JavaScript language badge.</desc>
  <rect width="64" height="64" rx="14" fill="#F7DF1E"/>
  <path fill="#111827" d="M18.8 48.8c1.2 2 3 3.5 6.1 3.5 2.9 0 4.7-1.4 4.7-4.6V25.4h-5.2v22c0 1.3-.5 1.7-1.4 1.7-1 0-1.7-.7-2.5-2l-1.7 1.7Zm15.5-.6c1.6 2.7 4.6 4.1 8.1 4.1 4.2 0 7.4-2.2 7.4-6.4 0-3.9-2.2-5.6-6.2-7.3l-1.1-.5c-2-.9-2.9-1.5-2.9-3 0-1.2.9-2.1 2.4-2.1 1.4 0 2.3.6 3.2 2.1l4-2.6c-1.7-3-4.1-4.2-7.2-4.2-4.5 0-7.4 2.9-7.4 6.7 0 4.1 2.4 6 6 7.5l1.1.5c2.1.9 3.3 1.4 3.3 3 0 1.4-1.3 2.3-3.2 2.3-2.3 0-3.7-1.2-4.7-2.9l-2.8 2.8Z"/>
</svg>
