<svg xmlns="http://www.w3.org/2000/svg" viewBox="0 0 64 64" role="img" aria-labelledby="title desc">
  <title id="title">Java logo</title>
  <desc id="desc">Red and blue Java language badge.</desc>
  <rect width="64" height="64" rx="14" fill="#111827"/>
  <path fill="#F89820" d="M33.8 9c3.5 3.5-1 6.3-3 8.8-1.5 1.9-1.2 3.5.8 5.8-4.4-2.1-6.2-5.2-3.5-8.5 2-2.6 7.5-4 5.7-6.1Z"/>
  <path fill="#5382A1" d="M43.7 20.5c-7.2 1.9-11.5 1.7-17.7 5.4-2.5 1.5-4.1 3.3-4.1 5 0 2.8 4.3 5.1 10.2 5.1 5.2 0 9.8-1.4 12.4-3.3-1 2.7-6.4 5.3-13.3 5.3-8.1 0-14.7-3.2-14.7-7.1 0-3.7 5.8-6.8 13.3-7.4 6.7-.6 10.5-1.7 13.9-3Z"/>
  <path fill="#F89820" d="M20.2 42.7c6.5 2 18.2 1.9 24.5-.8-1.9 2.7-8.5 4.6-15 4.3-5.3-.2-8.7-1.3-9.5-3.5Z"/>
  <path fill="#5382A1" d="M18.2 49.1c8.2 3.1 22.9 2.8 29.9-.6-2.4 3.8-11.8 6-20.5 5.1-6.1-.6-9.5-2.2-9.4-4.5Z"/>
</svg>
