<svg xmlns="http://www.w3.org/2000/svg" viewBox="0 0 64 64" role="img" aria-labelledby="title desc">
  <title id="title">Python logo</title>
  <desc id="desc">Blue and yellow Python language badge.</desc>
  <rect width="64" height="64" rx="14" fill="#101820"/>
  <path fill="#3776AB" d="M31.5 9c-10.5 0-13 4.7-13 10.4v5.1h13.2v2.2H13.2C7.8 26.7 4 30 4 36.5c0 6.4 3.8 10 9.2 10h5.1v-7.2c0-5.8 5-10.9 10.9-10.9h10.2c4.8 0 8.7-3.9 8.7-8.7v-.3C48.1 13.7 43.2 9 31.5 9Z"/>
  <path fill="#FFD43B" d="M32.5 55c10.5 0 13-4.7 13-10.4v-5.1H32.3v-2.2h18.5c5.4 0 9.2-3.3 9.2-9.8 0-6.4-3.8-10-9.2-10h-5.1v7.2c0 5.8-5 10.9-10.9 10.9H24.6c-4.8 0-8.7 3.9-8.7 8.7v.3c0 5.7 4.9 10.4 16.6 10.4Z"/>
  <circle cx="26" cy="18" r="2.2" fill="#fff"/>
  <circle cx="38" cy="46" r="2.2" fill="#101820"/>
</svg>
