<svg xmlns="http://www.w3.org/2000/svg" viewBox="0 0 64 64" role="img" aria-labelledby="title desc">
  <title id="title">TypeScript logo</title>
  <desc id="desc">Blue TypeScript language badge.</desc>
  <rect width="64" height="64" rx="14" fill="#3178C6"/>
  <path fill="#fff" d="M13 24.7h28v5H30.1v23h-6.2v-23H13v-5Zm30.1 22.7c1.2 2 3 3 5.4 3 2.2 0 3.6-.9 3.6-2.5 0-1.7-1.4-2.3-4.4-3.6l-1.3-.5c-4.7-2-7.8-4.5-7.8-9.7 0-4.8 3.7-8.5 9.4-8.5 4.1 0 7 1.4 9.1 5.1l-5 3.2c-1.1-2-2.3-2.8-4.1-2.8s-3.1 1.2-3.1 2.8c0 1.9 1.2 2.7 4 3.9l1.3.5c5.5 2.4 8.6 4.8 8.6 10.2 0 5.8-4.6 9-10.7 9-6 0-9.9-2.9-11.8-6.7l6.8-2.9Z"/>
</svg>
